Coordinates
version=1
nRows=19
nColumns=24
inDegrees=yes

Units are S.I. units (second, meters, Newtons, ...)
Angles are in degrees.

endheader
time	pelvis_tilt	pelvis_list	pelvis_rotation	pelvis_tx	pelvis_ty	pelvis_tz	hip_flexion_r	hip_adduction_r	hip_rotation_r	knee_angle_r	ankle_angle_r	subtalar_angle_r	mtp_angle_r	hip_flexion_l	hip_adduction_l	hip_rotation_l	knee_angle_l	ankle_angle_l	subtalar_angle_l	mtp_angle_l	lumbar_extension	lumbar_bending	lumbar_rotation
      1.30650000	     -4.19144514	      5.84999355	     -0.24592102	      0.20294367	      0.99314006	      0.30269005	     23.44163472	     -5.76043135	      0.35454135	    -69.43818855	     -2.84888272	    -10.76014691	      3.53011943	     11.92298931	     10.97647912	      1.82409528	     -8.52279658	     -2.05054549	    -16.00569161	     -2.36147821	      1.96618250	     -3.84625589	      2.74214725
      1.31066667	     -4.12408229	      5.78038032	     -0.24640910	      0.20791103	      0.99381511	      0.30259999	     23.92728802	     -5.63982838	      0.48692848	    -69.17375831	     -2.11643860	    -10.96203393	      3.49317441	     11.39085843	     10.91771864	      1.94910707	     -8.27592967	     -1.89743244	    -15.99869160	     -2.38183916	      1.87197621	     -3.75995316	      2.68825045
      1.31483333	     -4.05223957	      5.70101143	     -0.23917557	      0.21286036	      0.99446518	      0.30250453	     24.39070210	     -5.51327553	      0.60414642	    -68.85283118	     -1.40753347	    -11.15555630	      3.45116636	     10.85466339	     10.84939942	      2.08593955	     -8.03028448	     -1.74320959	    -15.99456164	     -2.40480268	      1.76873244	     -3.66281305	      2.62757710
      1.31900000	     -3.94901939	      5.63177947	     -0.23156080	      0.21782455	      0.99514463	      0.30240977	     24.80036197	     -5.40388989	      0.71091149	    -68.47224134	     -0.74505988	    -11.37504014	      3.34946444	     10.26980833	     10.79183446	      2.23823984	     -7.75449359	     -1.60398895	    -16.01236968	     -2.45852874	      1.63368564	     -3.58386844	      2.52815537
      1.32316667	     -3.90511481	      5.53355001	     -0.21255287	      0.22276183	      0.99571330	      0.30230206	     25.25641388	     -5.26652182	      0.79983569	    -68.03404048	     -0.09582247	    -11.50244987	      3.31380700	      9.77431143	     10.70143021	      2.36267751	     -7.52920788	     -1.43474094	    -16.00416253	     -2.47848782	      1.58004552	     -3.45099441	      2.48847932
      1.32733333	     -3.82349864	      5.47546664	     -0.19826937	      0.22765756	      0.99626776	      0.30220620	     25.67087503	     -5.17132557	      0.90583758	    -67.57203620	      0.54520716	    -11.68935719	      3.20369088	      9.22857814	     10.65411381	      2.52564889	     -7.27638000	     -1.29077032	    -16.01382704	     -2.53775336	      1.44186655	     -3.39052552	      2.38281910
      1.33150000	     -3.77458307	      5.36576660	     -0.16793557	      0.23255397	      0.99678864	      0.30210216	     26.08775268	     -5.02719511	      0.97430388	    -67.02865309	      1.14399392	    -11.79631542	      3.15918975	      8.73515503	     10.54934547	      2.65749148	     -7.06066241	     -1.11785200	    -15.99881517	     -2.56217319	      1.36600975	     -3.24502780	      2.33974278
      1.33566667	     -3.67049049	      5.29798153	     -0.14495954	      0.23744617	      0.99732480	      0.30201388	     26.43635853	     -4.93009522	      1.05453311	    -66.45313559	      1.71799000	    -11.94093299	      3.04087834	      8.16769074	     10.48816618	      2.80928958	     -6.81147568	     -0.95808558	    -15.98855783	     -2.62484254	      1.21175720	     -3.18113328	      2.22453928
      1.33983333	     -3.64146322	      5.20311915	     -0.10294157	      0.24230363	      0.99773318	      0.30190405	     26.84635695	     -4.80770593	      1.11550935	    -65.82059418	      2.25808207	    -12.02349480	      2.98356021	      7.70731371	     10.39783896	      2.95037187	     -6.61314861	     -0.78150555	    -15.97065315	     -2.65531105	      1.15538261	     -3.06793076	      2.17375955
      1.34400000	     -3.59655979	      5.11600372	     -0.06168989	      0.24715513	      0.99812950	      0.30180337	     27.22492839	     -4.69772635	      1.16949440	    -65.14582067	      2.77784553	    -12.11795315	      2.92295498	      7.22524913	     10.31251142	      3.08935898	     -6.40236509	     -0.60278405	    -15.94701018	     -2.68660779	      1.07181974	     -2.96652499	      2.10031912
      1.34816667	     -3.54327433	      5.04359679	     -0.01757256	      0.25199922	      0.99849056	      0.30169230	     27.58075063	     -4.60913684	      1.21904288	    -64.43144374	      3.26122219	    -12.19536836	      2.85521451	      6.73512435	     10.24309038	      3.22707086	     -6.19088158	     -0.42305171	    -15.91912213	     -2.72071062	      0.97798489	     -2.88203722	      2.01408501
      1.35233333	     -3.44859374	      4.97124061	      0.02224368	      0.25685696	      0.99888679	      0.30158291	     27.87081774	     -4.52592099	      1.25673817	    -63.66511459	      3.69065496	    -12.27706614	      2.72524850	      6.18698044	     10.17142382	      3.36303762	     -5.95124204	     -0.24268571	    -15.88134162	     -2.78558135	      0.83134028	     -2.79473550	      1.87728639
      1.35650000	     -3.39869723	      4.90671331	      0.07358824	      0.26167017	      0.99916614	      0.30146776	     28.19937351	     -4.45310781	      1.29206386	    -62.86552005	      4.10735715	    -12.31842159	      2.57044548	      5.70729974	     10.10752523	      3.50306699	     -5.74790277	     -0.05890007	    -15.85143181	     -2.86169487	      0.73302305	     -2.71963794	      1.77000172
      1.36066667	     -3.39165878	      4.82805208	      0.13781051	      0.26646949	      0.99936887	      0.30135153	     28.55289541	     -4.36851768	      1.30945831	    -62.01422180	      4.47529644	    -12.35118191	      2.51106350	      5.28579725	     10.02633057	      3.63645441	     -5.56661381	      0.12828306	    -15.81273867	     -2.88852818	      0.68593634	     -2.62644755	      1.72775761
      1.36483333	     -3.33455950	      4.79033048	      0.21840382	      0.27127238	      0.99960565	      0.30120027	     28.83690632	     -4.34302637	      1.31160383	    -61.14072054	      4.90420987	    -12.34329912	      0.19743187	      4.78672750	      9.99183168	      3.84395349	     -5.34244101	      0.29156072	    -15.80897665	     -3.97861492	      0.58587611	     -2.58701691	      1.46934837
      1.36900000	     -3.28919052	      4.69956806	      0.26854367	      0.27607499	      0.99981644	      0.30111426	     29.10496262	     -4.24153363	      1.32618701	    -60.18289998	      5.16599064	    -12.36269854	      0.18306305	      4.32657060	      9.89134149	      3.93388855	     -5.16488671	      0.50857062	    -15.73896794	     -3.97647731	      0.49199617	     -2.47708896	      1.48787418
      1.37316667	     -3.25574702	      4.64381168	      0.33488327	      0.28086329	      0.99994811	      0.30100352	     29.37790674	     -4.18932313	      1.32830975	    -59.20942514	      5.43284857	    -12.39261247	      0.16548736	      3.87450350	      9.82887716	      4.05690311	     -4.97695351	      0.70950398	    -15.65912077	     -3.97427386	      0.41289724	     -2.41411818	      1.43646506
      1.37733333	     -3.22259206	      4.60299091	      0.40455467	      0.28564026	      1.00004832	      0.30088168	     29.63615334	     -4.15868638	      1.32368841	    -58.20034359	      5.66641881	    -12.41630890	      0.14350959	      3.42343979	      9.78201173	      4.18034413	     -4.78839758	      0.90156648	    -15.58779434	     -3.97290723	      0.33092753	     -2.36709258	      1.35395856
      1.38150000	     -3.18076526	      4.54957658	      0.47723679	      0.29042498	      1.00014188	      0.30076617	     29.86022811	     -4.11899170	      1.29851799	    -57.14281218	      5.86089751	    -12.43679158	      0.11480124	      2.95937659	      9.71890040	      4.30084686	     -4.59247234	      1.09517412	    -15.51828379	     -3.97207695	      0.23650953	     -2.30994506	      1.25493639
